# AST/ASF file generated using VICON BodyLanguage
# -----------------------------------------------
:version 1.10
:name VICON
:units
  mass 1.0
  length 0.45
  angle deg
:documentation
   .ast/.asf automatically generated from VICON data using
   VICON BodyBuilder and BodyLanguage model FoxedUp or BRILLIANT.MOD
:root
   order TX TY TZ RX RY RZ
   axis XYZ
   position 0 0 0  
   orientation 0 0 0 
:bonedata
  begin
     id 1 
     name lhipjoint
     direction 0.602128 -0.715006 0.355257 
     length 2.21237 
     axis 0 0 0  XYZ
  end
  begin
     id 2 
     name lfemur
     direction 0.34202 -0.939693 0  
     length 6.71649  
     axis 0 0 20  XYZ
    dof rx ry rz
    limits (-160.0 20.0)
           (-70.0 70.0)
           (-60.0 70.0)
  end
  begin
     id 3 
     name ltibia
     direction 0.34202 -0.939693 0   
     length 6.97123   
     axis 0 0 20   XYZ
    dof rx
    limits (-10.0 170.0)
  end
  begin
     id 4 
     name lfoot
     direction 0.0655697 -0.180151 0.981451   
     length 1.80924   
     axis -90 7.62852e-016 20   XYZ
    dof rx rz
    limits (-45.0 90.0)
           (-70.0 20.0)
  end
  begin
     id 5 
     name ltoes
     direction 1.53545e-011 -4.21827e-011 1   
     length 0.916331   
     axis -90 7.62852e-016 20   XYZ
    dof rx
    limits (-90.0 20.0)
  end
  begin
     id 6 
     name rhipjoint
     direction -0.625414 -0.698792 0.347201   
     length 2.2637  
     axis 0 0 0  XYZ 
  end
  begin
     id 7 
     name rfemur
     direction -0.34202 -0.939693 0   
     length 7.07595   
     axis 0 0 -20   XYZ
    dof rx ry rz
    limits (-160.0 20.0)
           (-70.0 70.0)
           (-70.0 60.0)
  end
  begin
     id 8 
     name rtibia
     direction -0.34202 -0.939693 0   
     length 7.22924   
     axis 0 0 -20   XYZ
    dof rx
    limits (-10.0 170.0)
 end
 begin
     id 9 
     name rfoot
     direction -0.0766747 -0.210662 0.974547   
     length 1.98482  
     axis -90 -7.62852e-016 -20   XYZ
    dof rx rz
    limits (-45.0 90.0)
           (-20.0 70.0)
  end
  begin
     id 10 
     name rtoes
     direction -1.53532e-011 -4.21867e-011 1   
     length 0.999842   
     axis -90 -7.62852e-016 -20   XYZ
    dof rx
    limits (-90.0 20.0)
  end
  begin
     id 11 
     name lowerback
     direction -0.0224668 0.997354 -0.0691422   
     length 2.09945   
     axis 0 0 0   XYZ
    dof rx ry rz
    limits (-20.0 45.0)
           (-30.0 30.0)
           (-30.0 30.0)
  end
  begin
     id 12 
     name upperback
     direction 0.0134698 0.998451 -0.0539888   
     length 2.09758   
     axis 0 0 0   XYZ
    dof rx ry rz
    limits (-20.0 45.0)
           (-30.0 30.0)
           (-30.0 30.0)
  end
  begin
     id 13 
     name thorax
     direction 0.0241905 0.99948 -0.0213333   
     length 2.10428   
     axis 0 0 0   XYZ
    dof rx ry rz
    limits (-20.0 45.0)
           (-30.0 30.0)
           (-30.0 30.0)
  end
  begin
     id 14 
     name lowerneck
     direction -0.00866847 0.995978 0.0891737   
     length 1.3959   
     axis 0 0 0   XYZ
    dof rx ry rz
    limits (-20.0 45.0)
           (-30.0 30.0)
           (-30.0 30.0)
  end
  begin
     id 15 
     name upperneck
     direction 0.0680679 0.992203 0.104404   
     length 1.39452   
     axis 0 0 0   XYZ
    dof rx ry rz
    limits (-20.0 45.0)
           (-30.0 30.0)
           (-30.0 30.0)
  end
  begin
     id 16
     name head
     direction 0.0242216 0.999358 0.0264054  
     length 1.40433  
     axis 0 0 0   XYZ
    dof rx ry rz
    limits (-20.0 45.0)
           (-30.0 30.0)
           (-30.0 30.0)
  end
  begin
     id 17 
     name lclavicle
     direction 0.929368 0.362991 -0.0671771  
     length 3.04887  
     axis 0 0 0   XYZ
    dof ry rz
    limits (-20.0 10.0)
           (0.0 20.0)
  end
  begin
     id 18 
     name lhumerus
     direction 1 -4.48967e-011 -7.13741e-028   
     length 4.77195   
     axis -180 -30 -90   XYZ
    dof rx ry rz
    limits (-60.0 90.0)
           (-90.0 90.0)
           (-90.0 90.0)
  end
  begin
     id 19
     name lradius
     direction 1 -4.48977e-011 3.60404e-027   
     length 2.98444   
     axis -180 -30 -90   XYZ
    dof rx
    limits (-10.0 170.0)
  end
  begin
     id 20
     name lwrist
     direction 1 -4.48997e-011 7.54877e-027   
     length 1.49222   
     axis -7.18178e-015 90 90   XYZ
    dof ry
    limits (-180.0 0.0)
 end
  begin
     id 21 
     name lhand
     direction 1 -4.489e-011 1.51105e-026   
     length 0.992285   
     axis -9.63605e-015 90 90   XYZ
    dof rx rz
    limits (-90.0 90.0)
           (-45.0 45.0)
  end
  begin
     id 22 
     name lfingers
     direction 1 -4.48998e-011 3.01948e-026   
     length 0.800006   
     axis -1.92718e-014 90 90   XYZ
    dof rx
    limits (0.0 90.0)
  end
  begin
     id 23
     name lthumb
     direction 0.707107 -6.34881e-011 0.707107   
     length 1.14865   
     axis -90 45 -3.53137e-014   XYZ
    dof rx rz
    limits (-45.0 45.0)
           (-45.0 45.0)
  end
  begin
     id 24 
     name rclavicle
     direction -0.945672 0.324529 0.0196374   
     length 3.4236  
     axis 0 0 0   XYZ 
    dof ry rz
    limits (-10.0 20.0)
           (-20.0 0.0)
  end
  begin
     id 25 
     name rhumerus
     direction -1 -4.4896e-011 1.02757e-029  
     length 4.62052   
     axis -180 30 90   XYZ
    dof rx ry rz
    limits (-90.0 60.0)
           (-90.0 90.0)
           (-90.0 90.0)
  end
  begin
     id 26 
     name rradius
     direction -1 -4.48982e-011 3.85962e-027   
     length 2.95332   
     axis -180 30 90   XYZ
    dof rx
    limits (-10.0 170.0)
  end
  begin
     id 27 
     name rwrist
     direction -1 -4.48961e-011 7.55118e-027   
     length 1.47666   
     axis -7.18178e-015 -90 -90   XYZ
    dof ry
    limits (-180.0 0.0)
  end
  begin
     id 28
     name rhand
     direction -1 -4.48984e-011 1.50994e-026   
     length 0.990956   
     axis -9.63605e-015 -90 -90   XYZ
    dof rx rz
    limits (-90.0 90.0)
           (-45.0 45.0)
  end
  begin
     id 29
     name rfingers
     direction -1 -4.4892e-011 3.02158e-026   
     length 0.798934   
     axis -1.92718e-014 -90 -90   XYZ
    dof rx
    limits (0.0 90.0)
  end
  begin
     id 30
     name rthumb
     direction -0.707107 -6.34916e-011 0.707107   
     length 1.14711   
     axis -90 -45 3.53137e-014   XYZ
    dof rx rz
    limits (-45.0 45.0)
           (-45.0 45.0)
  end
:hierarchy
  begin
    root lhipjoint rhipjoint lowerback
    lhipjoint lfemur
    lfemur ltibia
    ltibia lfoot
    lfoot ltoes
    rhipjoint rfemur
    rfemur rtibia
    rtibia rfoot
    rfoot rtoes
    lowerback upperback
    upperback thorax
    thorax lowerneck lclavicle rclavicle
    lowerneck upperneck
    upperneck head
    lclavicle lhumerus
    lhumerus lradius
    lradius lwrist
    lwrist lhand lthumb
    lhand lfingers
    rclavicle rhumerus
    rhumerus rradius
    rradius rwrist
    rwrist rhand rthumb
    rhand rfingers
  end

#!OML:ASF H:\ManfredObstacles\Project 1\Capture day 1\Session 1\Male.ASF
:FULLY-SPECIFIED
:DEGREES
389
root -2.00326 8.4763 16.2893 -108.901 -8.74033 -186.565
lowerback 21.3748 1.43938 0.169323
upperback 5.1619 0.811869 -5.27283
thorax -6.22114 0.114087 -6.02282
lowerneck 3.2134 -4.36302 3.34584
upperneck -32.7921 -3.95279 14.3285
head -10.8905 -5.35062 5.38866
rclavicle 5.725e-014 -3.77691e-014
rhumerus 63.6704 -24.6232 -78.0456
rradius 38.939
rwrist 25.196
rhand -29.9903 0.159991
rfingers 7.12502
rthumb -3.30812 -29.7941
lclavicle 5.725e-014 -3.77691e-014
lhumerus 48.2114 -24.392 55.6447
lradius 54.6869
lwrist -32.199
lhand -49.8625 -3.76537
lfingers 7.12502
lthumb -22.4572 24.949
rfemur -57.7415 11.529 18.1257
rtibia 98.5562
rfoot 65.2347 -44.6798
rtoes 49.6001
lfemur -92.6969 21.4501 -17.9125
ltibia 125.077
lfoot 31.1056 -22.0366
ltoes -54.7103
390
root -1.99229 8.45996 16.1163 -108.573 -8.51989 -186.616
lowerback 21.1872 1.54702 0.0989212
upperback 5.09659 0.957692 -5.26564
thorax -6.18073 0.192107 -6.00685
lowerneck 3.14639 -4.40415 3.4954
upperneck -32.768 -4.04978 14.0901
head -10.874 -5.37308 5.27421
rclavicle 7.15625e-014 -6.29153e-014
rhumerus 63.646 -24.4304 -78.0812
rradius 38.1991
rwrist 27.9522
rhand -32.3737 -0.0513749
rfingers 7.12502
rthumb -5.60954 -29.9571
lclavicle 7.15625e-014 -6.29153e-014
lhumerus 46.8721 -24.8816 55.9968
lradius 55.4718
lwrist -32.2813
lhand -50.6041 -4.11071
lfingers 7.12502
lthumb -23.1688 24.5159
rfemur -56.8484 11.958 18.1949
rtibia 97.2053
rfoot 65.5423 -45.6035
rtoes 48.8506
lfemur -95.1281 19.9768 -17.6634
ltibia 126.061
lfoot 31.0042 -21.5224
ltoes -56.5945
391
root -1.97945 8.44017 15.9425 -108.174 -8.22917 -186.719
lowerback 20.7541 1.52352 -0.0308973
upperback 5.11187 0.908708 -5.35917
thorax -5.94398 0.174955 -6.00409
lowerneck 3.1076 -4.32558 3.42083
upperneck -32.6888 -3.93708 14.1378
head -10.8379 -5.31122 5.28562
rclavicle -1.43125e-014 -8.4732e-015
rhumerus 61.4915 -24.1811 -79.2543
rradius 42.3258
rwrist 32.3267
rhand -31.6255 -2.74254
rfingers 7.12502
rthumb -4.88713 -32.6662
lclavicle -1.43125e-014 -8.4732e-015
lhumerus 45.3687 -25.0108 56.1323
lradius 56.2083
lwrist -32.6608
lhand -51.3914 -4.46497
lfingers 7.12502
lthumb -23.924 24.0647
rfemur -56.0278 12.3313 18.1242
rtibia 95.8324
rfoot 66.5696 -45.5483
rtoes 49.1546
lfemur -97.6103 18.4794 -17.5753
ltibia 127.079
lfoot 31.1011 -21.3028
ltoes -57.4446
392
root -1.97352 8.41541 15.7509 -108.263 -7.82827 -186.769
lowerback 20.9702 1.60847 -0.46437
upperback 5.15365 0.920868 -5.23598
thorax -6.02268 0.180741 -5.62657
lowerneck 3.12493 -4.24545 3.17591
upperneck -32.6626 -3.8969 13.9623
head -10.8251 -5.2372 5.25462
rclavicle 1.43125e-014 -6.06045e-014
rhumerus 59.0677 -23.3089 -78.8865
rradius 45.2287
rwrist 30.0273
rhand -32.6287 -1.07021
rfingers 7.12502
rthumb -5.85574 -30.9693
lclavicle 1.43125e-014 -6.06045e-014
lhumerus 43.5805 -25.1374 56.8257
lradius 56.9864
lwrist -33.1395
lhand -52.0269 -4.68667
lfingers 7.12502
lthumb -24.5333 23.7617
rfemur -54.4652 12.7405 18.0091
rtibia 94.3168
rfoot 66.8166 -46.3825
rtoes 48.1154
lfemur -99.132 16.9992 -17.4444
ltibia 128.08
lfoot 30.5514 -21.3291
ltoes -56.8815
393
root -1.97416 8.38892 15.5674 -108.28 -7.41319 -186.596
lowerback 20.6505 1.65209 -0.72013
upperback 5.42325 0.922215 -5.19214
thorax -5.56957 0.183291 -5.40918
lowerneck 3.07374 -4.04439 2.77175
upperneck -32.8103 -3.67563 13.9896
head -10.8683 -5.11989 5.33068
rclavicle -7.95139e-015 1.45113e-014
rhumerus 57.4718 -21.9914 -78.2176
rradius 47.2931
rwrist 26.3173
rhand -33.6685 0.260835
rfingers 7.12502
rthumb -6.85961 -29.608
lclavicle -7.95139e-015 1.45113e-014
lhumerus 42.0218 -24.9758 57.1598
lradius 57.877
lwrist -33.4448
lhand -52.5888 -4.66886
lfingers 7.12502
lthumb -25.0718 23.7054
rfemur -53.1247 13.2569 17.8735
rtibia 92.7898
rfoot 67.3006 -46.7232
rtoes 47.4696
lfemur -100.834 15.7254 -17.429
ltibia 129.175
lfoot 30.869 -21.2604
ltoes -55.7106
394
root -1.97707 8.35 15.4071 -108.261 -7.16041 -186.487
lowerback 20.2226 1.56215 -0.923983
upperback 5.65425 0.785116 -5.00469
thorax -5.11614 0.11853 -5.02984
lowerneck 3.04512 -3.84977 2.12958
upperneck -32.7871 -3.47954 14.0702
head -10.8353 -4.97268 5.45231
rclavicle 1.43125e-014 3.75144e-014
rhumerus 56.1964 -20.3677 -77.1672
rradius 48.5981
rwrist 24.5612
rhand -34.7043 -0.0892623
rfingers 7.12502
rthumb -7.85942 -29.9232
lclavicle 1.43125e-014 3.75144e-014
lhumerus 40.2491 -24.5703 57.4989
lradius 58.692
lwrist -33.85
lhand -53.2345 -4.20033
lfingers 7.12502
lthumb -25.6904 24.086
rfemur -51.9265 13.5926 17.8893
rtibia 91.38
rfoot 67.8779 -47.159
rtoes 46.9229
lfemur -102.86 14.6805 -17.6017
ltibia 130.422
lfoot 30.9212 -21.2368
ltoes -56.4742
395
root -1.97179 8.31429 15.2374 -108.573 -6.82249 -186.017
lowerback 19.936 1.57021 -1.14794
upperback 5.91718 0.739589 -4.9878
thorax -4.6915 0.0905444 -4.8552
lowerneck 3.16324 -3.73985 2.03477
upperneck -32.6844 -3.31746 14.1127
head -10.8262 -4.88967 5.46823
rclavicle -4.92986e-014 1.37037e-014
rhumerus 54.875 -19.0585 -76.5985
rradius 49.6303
rwrist 25.2872
rhand -35.4613 -1.22619
rfingers 7.12502
rthumb -8.58994 -31.0315
lclavicle -4.92986e-014 1.37037e-014
lhumerus 38.6151 -24.2135 57.3853
lradius 59.3056
lwrist -34.0738
lhand -54.04 -4.0565
lfingers 7.12502
lthumb -26.4616 24.1161
rfemur -50.349 14.3995 18.0649
rtibia 89.8741
rfoot 68.6806 -47.6752
rtoes 46.0324
lfemur -104.215 14.2696 -17.7232
ltibia 131.515
lfoot 31.5783 -21.4581
ltoes -57.6194
396
root -1.96821 8.27596 15.0641 -108.98 -6.45389 -185.542
lowerback 19.6529 1.62156 -1.39688
upperback 6.17899 0.737128 -5.05777
thorax -4.26619 0.0806106 -4.77259
lowerneck 3.3061 -3.6844 2.1391
upperneck -32.4875 -3.17343 14.2502
head -10.7912 -4.8372 5.47828
rclavicle 2.22639e-014 2.1916e-014
rhumerus 53.3148 -17.8646 -75.9592
rradius 50.6501
rwrist 25.6175
rhand -36.2453 -1.95397
rfingers 7.12502
rthumb -9.34646 -31.7268
lclavicle 2.22639e-014 2.1916e-014
lhumerus 37.1095 -23.9571 57.5271
lradius 59.5033
lwrist -34.2778
lhand -55.0221 -4.79689
lfingers 7.12502
lthumb -27.4013 23.2307
rfemur -48.6438 15.1863 18.2118
rtibia 88.3614
rfoot 69.8931 -47.8984
rtoes 45.7055
lfemur -104.972 13.8307 -17.7734
ltibia 132.371
lfoot 31.9413 -21.4596
ltoes -58.0445
397
root -1.95784 8.22471 14.8881 -109.673 -6.33395 -184.929
lowerback 19.5438 1.71195 -1.59007
upperback 6.52345 0.79873 -4.93323
thorax -3.8411 0.098035 -4.52999
lowerneck 3.23133 -3.59083 2.0473
upperneck -32.159 -3.03927 14.3729
head -10.6518 -4.75259 5.49364
rclavicle 1.19271e-014 2.43511e-014
rhumerus 51.884 -16.409 -75.1478
rradius 51.6
rwrist 24.7507
rhand -37.1829 -2.23462
rfingers 7.12502
rthumb -10.2511 -31.9648
lclavicle 1.19271e-014 2.43511e-014
lhumerus 35.3847 -23.5103 58.2034
lradius 59.5685
lwrist -34.7236
lhand -55.8201 -5.9609
lfingers 7.12502
lthumb -28.1643 21.9435
rfemur -46.5211 16.0879 18.8549
rtibia 86.7599
rfoot 71.1591 -48.3512
rtoes 45.2028
lfemur -104.968 14.0467 -17.5589
ltibia 133.097
lfoot 33.4836 -21.6424
ltoes -56.3267
398
root -1.96114 8.17198 14.7233 -109.891 -6.33005 -184.646
lowerback 18.8818 1.64132 -1.54374
upperback 6.79859 0.748201 -4.78133
thorax -3.208 0.0712144 -4.35744
lowerneck 3.06419 -3.50612 1.80654
upperneck -31.8604 -2.95977 14.4652
head -10.4964 -4.67526 5.5266
rclavicle -4.13472e-014 2.09345e-014
rhumerus 50.6367 -14.9441 -74.4362
rradius 52.394
rwrist 24.0686
rhand -38.1043 -2.41888
rfingers 7.12502
rthumb -11.1399 -32.1032
lclavicle -4.13472e-014 2.09345e-014
lhumerus 33.5526 -23.1325 58.9216
lradius 59.7663
lwrist -35.2112
lhand -56.4458 -6.86661
lfingers 7.12502
lthumb -28.7622 20.9378
rfemur -44.9456 16.5188 19.2638
rtibia 84.9651
rfoot 74.1226 -46.5703
rtoes 43.697
lfemur -105.35 13.4302 -17.4059
ltibia 133.623
lfoot 34.2756 -21.7276
ltoes -56.5076
